<?xml version="1.0" standalone="no"?>
<!DOCTYPE svg PUBLIC "-//W3C//DTD SVG 1.1//EN" "http://www.w3.org/Graphics/SVG/1.1/DTD/svg11.dtd" >
<svg xmlns="http://www.w3.org/2000/svg">
<metadata>Generated by IcoMoon</metadata>
<defs>
<font id="icomoon" horiz-adv-x="1024">
<font-face units-per-em="1024" ascent="960" descent="-64" />
<missing-glyph horiz-adv-x="1024" />
<glyph unicode="&#x20;" horiz-adv-x="512" d="" />
<glyph unicode="&#xe900;" glyph-name="add_note_icon" d="M512 960c-283.941 0-512-228.059-512-512s228.059-512 512-512c283.941 0 512 228.059 512 512s-228.059 512-512 512zM791.259 424.741c0-13.995-9.314-23.259-23.259-23.259h-197.827c-6.973 0-11.654-4.681-11.654-11.654v-197.827c0-13.946-9.265-23.259-23.259-23.259h-46.519c-13.995 0-23.308 9.314-23.308 23.259v197.827c0 6.973-4.632 11.654-11.605 11.654h-197.827c-13.946 0-23.259 9.265-23.259 23.259v46.519c0 13.995 9.314 23.308 23.259 23.308h197.827c6.973 0 11.605 4.632 11.605 11.605v197.827c0 13.946 9.314 23.259 23.308 23.259h46.519c13.995 0 23.259-9.314 23.259-23.259v-197.827c0-6.973 4.681-11.605 11.654-11.605h197.827c13.946 0 23.259-9.314 23.259-23.308v-46.519z" />
<glyph unicode="&#xe901;" glyph-name="arrow_down_icon" horiz-adv-x="1593" d="M185.116 959.659l-186.14-193.877 797.81-831.26 797.696 831.26-186.14 193.877-611.556-637.269-611.669 637.269z" />
<glyph unicode="&#xe902;" glyph-name="arrow_up_icon" horiz-adv-x="1593" d="M1407.659-63.659l186.14 193.991-797.696 831.147-797.696-831.147 186.14-193.991 611.556 637.269 611.556-637.269z" />
<glyph unicode="&#xe903;" glyph-name="back_icon" horiz-adv-x="666" d="M665.6 840.55l-125.952 119.45-539.648-512 539.648-512 125.952 119.501-413.747 392.499 413.747 392.55z" />
<glyph unicode="&#xe904;" glyph-name="cancel_icon_popup_icon" d="M874.212 810.212c-199.68 199.68-524.686 199.68-724.423 0-199.68-199.737-199.68-524.686 0-724.423 199.737-199.737 524.686-199.737 724.423 0s199.737 524.686 0 724.423zM714.012 245.988c-15.417-15.36-40.334-15.36-55.694 0l-146.318 146.318-153.202-153.259c-15.417-15.36-40.334-15.36-55.751 0-15.36 15.417-15.36 40.334 0 55.694l153.259 153.259-146.261 146.261c-15.417 15.417-15.417 40.334 0 55.751 15.36 15.36 40.277 15.36 55.694 0l146.261-146.318 139.321 139.321c15.36 15.36 40.334 15.36 55.694 0 15.417-15.36 15.417-40.334 0-55.694l-139.264-139.321 146.261-146.261c15.36-15.417 15.36-40.334 0-55.751z" />
<glyph unicode="&#xe905;" glyph-name="cancel_white_icon" d="M874.212 810.212c-199.68 199.68-524.686 199.737-724.423 0s-199.68-524.686 0-724.423c199.737-199.737 524.686-199.737 724.423 0s199.737 524.686 0 724.423zM714.012 245.988c-15.417-15.36-40.334-15.36-55.751 0l-146.261 146.318-153.202-153.259c-15.417-15.36-40.334-15.36-55.751 0-15.36 15.417-15.36 40.334 0 55.751l153.259 153.202-146.318 146.261c-15.36 15.417-15.36 40.334 0 55.751 15.417 15.36 40.334 15.36 55.751 0l146.261-146.318 139.321 139.321c15.36 15.417 40.334 15.417 55.694 0 15.417-15.36 15.417-40.334 0-55.694l-139.321-139.321 146.318-146.261c15.36-15.417 15.36-40.334 0-55.751z" />
<glyph unicode="&#xe906;" glyph-name="correct_tick_icon" horiz-adv-x="1187" d="M347.546 199.68l-224.666 238.899-123.494-131.277 296.448-315.29 0.307 0.307 54.17-57.549 836.915 890.163-125.952 133.939-713.728-759.194z" />
<glyph unicode="&#xe907;" glyph-name="delete_dustbin_icon" horiz-adv-x="846" d="M611.907-64c-129.024 0-234.006 103.112-234.006 229.821 0 126.753 104.982 229.866 234.006 229.866s234.006-103.112 234.006-229.866c0-126.709-104.982-229.821-234.006-229.821zM739.417 242.042l-49.953 49.018-77.557-76.177-77.601 76.177-49.909-49.018 77.601-76.221-77.601-76.177 49.909-49.018 77.601 76.177 77.557-76.177 49.953 49.018-77.601 76.177 77.601 76.221zM470.684 430.859v233.294h141.223v-199.146c-50.933 0-98.972-12.333-141.223-34.148zM0 872.159h196.252v87.841h266.463v-87.841h196.252v-138.685h-658.966v138.685zM266.863 872.159h125.24v18.521h-125.24v-18.521zM188.282-6.211h-141.223v670.364h141.223v-670.364zM400.072 380.639c-57.166-54.45-92.783-130.627-92.783-214.817 0-63.978 20.569-123.325 55.563-172.032h-103.958v670.364h141.178v-283.514z" />
<glyph unicode="&#xe908;" glyph-name="dropdown_header_icon" d="M512 960c-281.6 0-512-230.4-512-512s230.4-512 512-512c281.6 0 512 230.4 512 512s-230.4 512-512 512zM512 345.6l-204.8 204.8h409.6l-204.8-204.8z" />
<glyph unicode="&#xe909;" glyph-name="dropdown_icon" horiz-adv-x="1792" d="M1758.592 926.208c-22.144 22.528-48.384 33.664-78.72 33.664h-1567.872c-30.336 0-56.576-11.136-78.72-33.664s-33.28-49.28-33.28-80c0-30.848 11.136-57.472 33.28-80l784-796.288c22.144-22.528 48.384-33.792 78.72-33.792s56.576 11.264 78.72 33.792l783.872 796.288c22.144 22.528 33.28 49.152 33.28 80 0 30.72-11.136 57.472-33.28 80z" />
<glyph unicode="&#xe90a;" glyph-name="edit_profile_camera_icon" horiz-adv-x="1268" d="M967.29-44.251c-19.505 0-35.109 15.214-35.109 34.231 0 18.968 15.604 34.182 35.109 34.182 127.122 0 230.351 100.84 230.351 224.451v381.269c-42.423 18.773-153.941 63.098-313.295 89.966-13.751 2.292-24.917 12.386-28.038 25.844l-13.019 54.467c-12.971 53.931-61.586 91.429-118.296 91.429h-182.223c-56.905 0-105.277-37.742-118.248-91.429l-13.019-54.467c-3.121-13.166-14.287-23.552-28.087-25.844-159.842-26.868-271.116-71.192-313.246-89.966v-381.269c0-123.855 103.473-224.451 230.351-224.451 19.456 0 35.060-15.214 35.060-34.182 0-19.017-15.604-34.231-35.060-34.231-165.888 0-300.52 131.511-300.52 292.864v402.822c0 12.678 7.266 24.332 18.725 30.135 5.169 2.828 126.83 64.61 329.63 101.62l7.753 32.427c20.578 85.090 97.231 144.384 186.661 144.384h182.223c89.722 0 166.376-59.538 186.661-144.384l7.802-32.427c202.752-37.254 324.413-98.792 329.63-101.62 11.703-5.803 18.725-17.457 18.725-30.135v-402.822c0-161.597-134.924-292.864-300.52-292.864zM240.981 784.945c-39.497-9.118-78.263-19.749-115.176-31.646-3.608-1.268-7.266-1.804-10.923-1.804-14.531 0-28.331 9.118-33.499 23.552-5.998 17.749 3.901 37.254 22.333 43.106 39.010 12.386 79.823 23.552 121.125 33.158 18.725 4.34 37.693-6.827 42.13-25.307 4.437-18.237-7.022-36.766-25.99-41.058zM634.051 723.651c222.744 0 403.944-176.859 403.944-393.947 0-217.137-181.199-393.704-403.944-393.704-222.793 0-403.992 176.859-403.992 393.947 0 217.137 181.199 393.704 403.992 393.704zM634.051 4.413c184.027 0 333.775 146.188 333.775 325.534s-149.748 325.291-333.775 325.291c-184.076 0-333.824-146.188-333.824-325.534s149.748-325.291 333.824-325.291z" />
<glyph unicode="&#xe90b;" glyph-name="edit_profile_icon" horiz-adv-x="819" d="M770.611-0.717c-39.219-14.182-79.667-24.678-120.422-33.28-78.694-16.64-159.846-29.44-240.589-30.003-80.794 0.563-161.894 13.363-240.589 30.003-40.755 8.602-81.254 19.098-120.422 33.28-31.334 11.315-49.818 16.538-48.538 54.016 1.69 48.333 7.322 96.922 15.77 144.538 10.24 57.651 23.194 142.234 73.523 179.814 29.082 21.709 66.765 28.877 100.096 41.984 16.179 6.349 30.72 12.698 44.339 19.866 45.978-50.483 105.984-76.902 175.821-76.902s129.792 26.419 175.821 76.902c13.619-7.168 28.16-13.517 44.339-19.866 33.331-13.107 71.014-20.275 100.096-41.984 50.278-37.581 63.283-122.163 73.523-179.814 8.397-47.616 14.080-96.205 15.718-144.538 1.331-37.478-17.203-42.752-48.486-54.016zM409.6 414.566c-151.398 0-205.824 151.706-220.109 276.378-17.613 153.498 54.989 269.056 220.109 269.056 165.171 0 237.67-115.558 220.109-269.056-14.234-124.672-68.71-276.378-220.109-276.378z" />
<glyph unicode="&#xe90c;" glyph-name="flash_card_close_icon" d="M633.32 448.293l364.934 364.885c33.548 33.597 33.548 88.064 0 121.661-33.597 33.597-88.064 33.597-121.661 0l-364.885-364.934-364.934 364.934c-33.548 33.597-88.015 33.597-121.612 0s-33.597-88.064 0-121.661l364.885-364.885-364.885-364.885c-33.597-33.597-33.597-88.064 0-121.612 33.597-33.597 88.064-33.597 121.612 0l364.934 364.885 364.885-364.885c33.597-33.597 88.064-33.597 121.661 0 33.548 33.548 33.548 88.015 0 121.612l-364.934 364.885z" />
<glyph unicode="&#xe90d;" glyph-name="incorrect_cancel_icon" d="M601.952 448.372l401.514 401.834c24.895 25.002 24.895 65.43 0 90.431s-65.323 25.002-90.325 0l-401.514-401.94-401.514 401.94c-24.895 25.002-65.323 25.002-90.218 0-25.002-25.002-25.002-65.43 0-90.431l401.514-401.834-401.514-401.94c-25.002-25.002-25.002-65.43 0-90.325 12.448-12.554 28.832-18.725 45.109-18.725s32.662 6.171 45.109 18.725l401.514 401.834 401.514-401.834c12.554-12.554 28.832-18.725 45.216-18.725 16.278 0 32.662 6.171 45.109 18.725 24.895 24.895 24.895 65.323 0 90.325l-401.514 401.94z" />
<glyph unicode="&#xe90e;" glyph-name="info_dark_icon" d="M512 960c-282.795 0-512-229.205-512-512s229.205-512 512-512c282.795 0 512 229.205 512 512s-229.205 512-512 512zM596.821 816.299c1.963 0.085 4.011 0.171 6.059 0 27.733 0.939 51.797-19.968 55.637-47.019 12.373-51.883-42.752-103.936-93.44-83.2-60.501 28.075-29.952 127.232 31.744 130.219zM571.819 590.421c39.339 2.475 46.165-43.264 33.963-89.6-23.893-106.581-61.099-209.749-81.323-317.099 9.728-42.411 63.232 6.229 86.101 21.76 19.456 15.445 22.784-3.925 29.44-20.224-48.555-33.963-97.365-68.608-151.381-96-50.773-30.805-92.331 17.067-79.701 70.4 20.992 99.499 48.555 197.461 71.083 296.704 6.997 53.589-63.488-1.024-84.48-13.483-16.896-21.248-24.917-5.717-32 13.483 56.235 41.045 113.579 91.477 175.701 124.16 12.629 6.229 23.552 9.301 32.597 9.899z" />
<glyph unicode="&#xe90f;" glyph-name="info_icon" d="M512 960c-282.778 0-512-229.222-512-512s229.222-512 512-512c282.778 0 512 229.222 512 512s-229.222 512-512 512zM596.787 816.333c1.997 0.102 4.045 0.102 6.093 0 27.699 0.922 51.814-20.019 55.654-47.053 12.39-51.917-42.752-103.987-93.44-83.2-60.467 28.109-30.003 127.232 31.693 130.253zM571.853 590.387c39.27 2.509 46.131-43.213 33.894-89.6-23.91-106.496-61.082-209.715-81.306-317.082 9.779-42.445 63.232 6.195 86.118 21.76 19.456 15.462 22.835-3.942 29.44-20.173-48.538-33.997-97.331-68.608-151.398-96-50.739-30.822-92.314 17.050-79.667 70.4 20.992 99.482 48.538 197.427 71.066 296.653 7.014 53.555-63.488-0.973-84.48-13.466-16.896-21.248-24.934-5.734-32 13.466 56.218 41.062 113.562 91.443 175.667 124.109 12.698 6.349 23.603 9.37 32.666 9.933z" />
<glyph unicode="&#xe910;" glyph-name="key_icon" d="M701.602 960c-178.23 0-322.344-144.115-322.344-322.344 0-37.942 7.599-75.884 18.971-113.772l-398.228-398.228v-189.656h189.602v113.772h113.772v113.772h113.826l170.631 170.685c34.169-11.372 72.057-18.971 113.772-18.971 178.284 0 322.398 144.115 322.398 322.398 0 178.23-144.115 322.344-322.398 322.344zM796.456 618.685c-64.512 0-113.772 49.314-113.772 113.772s49.26 113.772 113.772 113.772c64.458 0 113.772-49.314 113.772-113.772s-49.314-113.772-113.772-113.772z" />
<glyph unicode="&#xe911;" glyph-name="logout_icon" horiz-adv-x="1317" d="M827.051-64c-162.865 0-314.612 84.358-405.894 225.719-18.53 28.623-11.313 67.535 16.091 86.894 27.355 19.358 64.561 11.8 83.090-16.823 68.998-106.837 183.637-170.618 306.712-170.618 203.922 0 369.81 173.544 369.81 386.828s-165.888 386.828-369.81 386.828c-123.416 0-238.299-64.073-307.2-171.349-18.481-28.721-55.637-36.328-83.090-17.067-27.404 19.31-34.718 58.173-16.286 86.894 91.234 141.946 243.224 226.694 406.577 226.694 269.897 0 489.521-229.669 489.521-512s-219.624-512-489.521-512zM204.312 510.61h693.346c33.061 0 59.831-28.038 59.831-62.61s-26.77-62.562-59.831-62.562h-693.346l77.385-80.945c23.357-24.43 23.357-64.073 0-88.503-11.703-12.239-27.014-18.334-42.325-18.334s-30.622 6.095-42.325 18.334l-179.493 187.733c-1.414 1.463-2.731 2.974-3.95 4.584-0.293 0.341-0.585 0.78-0.878 1.17-0.878 1.219-1.804 2.438-2.633 3.755-0.244 0.341-0.439 0.731-0.634 1.073-0.829 1.365-1.658 2.731-2.389 4.194-0.146 0.244-0.244 0.536-0.39 0.78-0.731 1.56-1.463 3.121-2.097 4.73-0.098 0.195-0.146 0.39-0.195 0.585-0.683 1.707-1.268 3.413-1.804 5.169-0.049 0.195-0.098 0.439-0.146 0.634-0.488 1.755-0.926 3.511-1.268 5.315-0.098 0.488-0.146 1.024-0.244 1.56-0.244 1.463-0.488 2.974-0.634 4.486-0.195 2.048-0.293 4.145-0.293 6.242s0.098 4.194 0.293 6.242c0.146 1.512 0.39 2.974 0.634 4.486 0.098 0.536 0.146 1.073 0.244 1.609 0.341 1.755 0.78 3.511 1.268 5.218 0.049 0.244 0.098 0.488 0.146 0.683 0.536 1.755 1.122 3.462 1.755 5.169 0.098 0.195 0.146 0.39 0.244 0.585 0.634 1.609 1.365 3.17 2.097 4.681 0.146 0.293 0.244 0.585 0.39 0.878 0.731 1.414 1.56 2.779 2.389 4.096 0.195 0.39 0.39 0.78 0.634 1.17 0.829 1.268 1.755 2.487 2.633 3.706 0.293 0.39 0.585 0.829 0.878 1.219 1.219 1.56 2.536 3.072 3.95 4.535l179.493 187.782c23.406 24.43 61.294 24.43 84.651 0 23.357-24.478 23.357-64.073 0-88.552l-77.385-80.896z" />
<glyph unicode="&#xe912;" glyph-name="menu_icon" horiz-adv-x="1365" d="M0-63.902v133.559h1365.333v-133.559h-1365.333zM0 514.853h1365.333v-133.559h-1365.333v133.559zM0 960.049h1365.333v-133.559h-1365.333v133.559z" />
<glyph unicode="&#xe913;" glyph-name="mobile_icon" horiz-adv-x="585" d="M509.659 960.088h-434.147c-41.545 0-75.074-33.412-75.074-74.606v-874.993c0-41.165 33.529-74.518 75.074-74.518h434.147c41.457 0 75.045 33.353 75.045 74.518v874.993c0 41.194-33.587 74.606-75.045 74.606zM185.461 914.798h214.338c5.383 0 9.772-8.016 9.772-17.935 0-9.947-4.389-18.022-9.772-18.022h-214.338c-5.471 0-9.772 8.075-9.772 18.022 0 9.918 4.301 17.935 9.772 17.935zM292.601 9.582c-26.419 0-47.923 21.358-47.923 47.631 0 26.244 21.504 47.514 47.923 47.514 26.361 0 47.865-21.27 47.865-47.514 0-26.273-21.504-47.631-47.865-47.631zM528.443 172.632h-471.713v661.563h471.713v-661.563z" />
<glyph unicode="&#xe914;" glyph-name="more_icon" horiz-adv-x="279" d="M139.636 324.422c-76.986 0-139.636 55.436-139.636 123.578s62.65 123.578 139.636 123.578c76.986 0 139.636-55.436 139.636-123.578s-62.65-123.578-139.636-123.578zM139.636 712.844c-76.986 0-139.636 55.436-139.636 123.578s62.65 123.578 139.636 123.578c76.986 0 139.636-55.436 139.636-123.578s-62.65-123.578-139.636-123.578zM139.636 183.203c76.986 0 139.636-55.482 139.636-123.625s-62.65-123.578-139.636-123.578c-76.986 0-139.636 55.436-139.636 123.578s62.65 123.625 139.636 123.625z" />
<glyph unicode="&#xe915;" glyph-name="next_big_icon" horiz-adv-x="1025" d="M512.311 959.901c-283.031 0-512.485-229.23-512.485-512.012s229.453-512.037 512.485-512.037c283.056 0 512.485 229.254 512.485 512.037s-229.428 512.012-512.485 512.012zM668.495 413.205c-2.511-2.511-5.246-4.6-8.105-6.439l-192.334-192.16c-9.348-9.348-21.58-14.022-33.837-14.022-12.232 0-24.464 4.674-33.813 14.022-18.696 18.672-18.696 48.929 0 67.6l165.732 165.607-164.911 164.762c-18.672 18.696-18.672 48.954 0 67.625 18.696 18.672 48.979 18.647 67.675 0l191.489-191.29c2.859-1.84 5.594-3.953 8.080-6.439 9.547-9.547 14.171-22.127 13.948-34.633 0.224-12.531-4.376-25.086-13.923-34.633z" />
<glyph unicode="&#xe916;" glyph-name="next_grey_icon" horiz-adv-x="630" d="M0.212 56.029l119.392-119.463 511.611 512.248-511.611 512.248-119.392-119.534 392.218-392.714-392.218-392.785z" />
<glyph unicode="&#xe917;" glyph-name="next_grey_icon-1" horiz-adv-x="630" d="M0.212 56.029l119.392-119.463 511.611 512.248-511.611 512.248-119.392-119.534 392.218-392.714-392.218-392.785z" />
<glyph unicode="&#xe918;" glyph-name="next_image_icon" horiz-adv-x="664" d="M0 840.552l125.675 119.448 538.541-512-538.541-512-125.675 119.476 412.893 392.524-412.893 392.552z" />
<glyph unicode="&#xe919;" glyph-name="next_white_icon" horiz-adv-x="630" d="M0.212 56.029l119.392-119.463 511.611 512.248-511.611 512.248-119.392-119.534 392.218-392.714-392.218-392.785z" />
<glyph unicode="&#xe91a;" glyph-name="pause_icon" horiz-adv-x="614" d="M504.627-64c-60.518 0-109.67 49.869-109.67 111.411v801.178c0 61.542 49.152 111.411 109.67 111.411 60.621 0 109.773-49.869 109.773-111.411v-801.178c0-61.542-49.152-111.411-109.773-111.411zM109.67-64c-60.621 0-109.67 49.869-109.67 111.411v801.178c0 61.542 49.050 111.411 109.67 111.411s109.773-49.869 109.773-111.411v-801.178c0-61.542-49.152-111.411-109.773-111.411z" />
<glyph unicode="&#xe91b;" glyph-name="play_icon" horiz-adv-x="894" d="M837.959 520.125l-696.795 428.358c-20.539 11.991-46.184 9.973-65.417 9.973-77.29 0-76.934-58.175-76.934-72.897v-875.713c0-12.466-0.356-73.016 76.934-73.016 19.233 0 44.878-1.9 65.417 9.973l696.795 428.477c57.225 33.243 47.371 72.422 47.371 72.422s9.854 39.179-47.371 72.422z" />
<glyph unicode="&#xe91c;" glyph-name="plus_icon" horiz-adv-x="1025" d="M1024.977 422.416h-486.416v-486.416h-25.584v486.416h-512.977v25.584h512.977v512h25.584v-512h486.416v-25.584z" />
<glyph unicode="&#xe91d;" glyph-name="previous_image_icon" horiz-adv-x="664" d="M664.216 840.552l-125.675 119.448-538.541-512 538.541-512 125.675 119.476-412.893 392.524 412.893 392.552z" />
<glyph unicode="&#xe91e;" glyph-name="search_icon" horiz-adv-x="1042" d="M930.823-63.658l-297.546 297.519 111.586 111.586 297.519-297.519-111.56-111.586zM103.276 354.757c-138.648 138.648-138.648 363.424 0 502.098 138.648 138.648 363.451 138.648 502.098 0 138.648-138.674 138.648-363.451 0-502.098-138.648-138.674-363.451-138.674-502.098 0zM512.408 763.863c-87.312 87.286-228.853 87.286-316.139 0-87.312-87.286-87.312-228.827 0-316.139 87.286-87.286 228.827-87.286 316.139 0 87.286 87.312 87.286 228.853 0 316.139z" />
<glyph unicode="&#xe91f;" glyph-name="signup_camera_icon" horiz-adv-x="1268" d="M967.29-44.251c-19.505 0-35.109 15.214-35.109 34.231 0 18.968 15.604 34.182 35.109 34.182 127.122 0 230.351 100.84 230.351 224.451v381.269c-42.423 18.773-153.941 63.098-313.246 89.966-13.8 2.292-24.966 12.386-28.087 25.844l-13.019 54.467c-12.971 53.931-61.586 91.429-118.296 91.429h-182.223c-56.905 0-105.277-37.742-118.248-91.429l-13.019-54.467c-3.121-13.166-14.287-23.552-28.087-25.844-159.842-26.868-271.116-71.192-313.246-89.966v-381.269c0-123.855 103.473-224.451 230.351-224.451 19.505 0 35.060-15.214 35.060-34.182 0-19.017-15.555-34.231-35.060-34.231-165.839 0-300.52 131.511-300.52 292.864v402.822c0 12.678 7.266 24.332 18.725 30.135 5.169 2.828 126.83 64.61 329.63 101.62l7.802 32.427c20.529 85.090 97.182 144.384 186.612 144.384h182.223c89.722 0 166.376-59.538 186.661-144.384l7.802-32.427c202.752-37.254 324.462-98.792 329.63-101.62 11.703-5.803 18.725-17.457 18.725-30.135v-402.822c0-161.597-134.924-292.864-300.52-292.864zM240.981 784.945c-39.497-9.118-78.263-19.749-115.176-31.646-3.608-1.268-7.266-1.804-10.923-1.804-14.531 0-28.331 9.118-33.499 23.552-5.998 17.749 3.901 37.254 22.333 43.106 39.010 12.386 79.823 23.552 121.125 33.158 18.725 4.34 37.693-6.827 42.13-25.307 4.437-18.237-7.022-36.766-25.99-41.058zM634.051 723.651c222.744 0 403.944-176.859 403.944-393.947 0-217.137-181.199-393.704-403.944-393.704-222.793 0-403.992 176.859-403.992 393.947s181.199 393.704 403.992 393.704zM634.051 4.413c184.027 0 333.775 146.188 333.775 325.534s-149.748 325.291-333.775 325.291c-184.076 0-333.824-146.188-333.824-325.534 0-179.395 149.748-325.291 333.824-325.291z" />
<glyph unicode="&#xe920;" glyph-name="testimonial_next_icon" horiz-adv-x="585" d="M119.515-63.707c-29.55 0-59.173 11.557-82.286 34.889-47.762 48.274-49.737 128.512-4.242 179.346l267.191 298.423-266.971 296.302c-45.568 50.615-43.886 130.926 3.73 179.346 47.689 48.494 123.319 46.665 168.887-3.95l345.673-383.781c44.032-48.859 44.178-125.952 0.293-175.031l-345.673-386.121c-23.552-26.185-55.003-39.424-86.601-39.424z" />
<glyph unicode="&#xe921;" glyph-name="testimonial_previous_icon" horiz-adv-x="585" d="M465.627-63.707c29.55 0 59.173 11.557 82.286 34.889 47.762 48.274 49.664 128.512 4.242 179.346l-267.191 298.423 266.971 296.302c45.568 50.615 43.886 130.926-3.803 179.346-47.689 48.494-123.246 46.665-168.814-3.95l-345.673-383.781c-44.032-48.859-44.178-125.952-0.293-175.031l345.673-386.121c23.552-26.185 55.003-39.424 86.601-39.424z" />
<glyph unicode="&#xe922;" glyph-name="dowmload" d="M869.741 307.404v-233.917h-715.516v233.917h-137.522v-302.677c0-37.95 30.743-68.727 68.863-68.727h852.832c38.087 0 68.863 30.743 68.863 68.727v302.677h-137.522zM499.396 330.598l-196.889 237.913c0 0-29.957 28.283 2.528 28.283s110.946 0 110.946 0 0 19.026 0 48.368c0 83.654 0 235.898 0 297.964 0 0-4.406 16.874 21.007 16.874 25.619 0 137.829 0 156.172 0 18.309 0 17.899-14.21 17.899-14.21 0-60.187 0-217.691 0-298.613 0-26.234 0-43.245 0-43.245s62.92 0 102.407 0c39.419 0 9.735-29.615 9.735-29.615s-167.513-222.371-190.877-245.701c-16.806-16.908-32.929 1.981-32.929 1.981z" />
<glyph unicode="&#xe923;" glyph-name="Forma-1" horiz-adv-x="279" d="M279.273 836.422c0.663-5.129 1.041-11.061 1.041-17.082 0-77.685-62.976-140.66-140.66-140.66s-140.66 62.976-140.66 140.66c0 77.679 62.966 140.651 140.642 140.66 2.189 0.129 4.748 0.202 7.324 0.202 70.131 0 127.547-54.442 132.291-123.368zM279.273 59.578c0.659-5.115 1.035-11.031 1.035-17.036 0-77.685-62.976-140.66-140.66-140.66s-140.66 62.976-140.66 140.66c0 77.681 62.969 140.654 140.648 140.66 2.188 0.129 4.745 0.202 7.32 0.202 70.148 0 127.574-54.467 132.294-123.417zM279.273 448c0.663-5.129 1.041-11.061 1.041-17.082 0-77.685-62.976-140.66-140.66-140.66s-140.66 62.976-140.66 140.66c0 77.679 62.966 140.651 140.642 140.66 2.189 0.129 4.748 0.202 7.324 0.202 70.131 0 127.547-54.442 132.291-123.368z" />
<glyph unicode="&#xe924;" glyph-name="star" d="M512 959.403l168.704-321.536 343.296-69.291-238.933-268.032 43.349-364.373-316.416 155.904-316.416-156.075 43.349 364.373-238.933 268.032 343.125 69.291 168.875 321.707z" />
<glyph unicode="&#xe925;" glyph-name="more" horiz-adv-x="2050" d="M614.4 584.32c-75.287 0-136.32-61.033-136.32-136.32s61.033-136.32 136.32-136.32c75.287 0 136.32 61.033 136.32 136.32 0 0.095 0 0.208 0 0.32 0 75.111-60.889 136-136 136-0.113 0-0.225 0-0.338 0zM1024 584.32c-75.287 0-136.32-61.033-136.32-136.32s61.033-136.32 136.32-136.32c75.287 0 136.32 61.033 136.32 136.32 0 0.095 0 0.208 0 0.32 0 75.111-60.889 136-136 136-0.113 0-0.225 0-0.338 0zM1569.92 448c0 75.287-61.033 136.32-136.32 136.32s-136.32-61.033-136.32-136.32c0-75.287 61.033-136.32 136.32-136.32 0.095 0 0.208 0 0.32 0 75.111 0 136 60.889 136 136 0 0.113 0 0.225 0 0.338zM82.56 448l453.76 453.76c6.226 6.103 10.085 14.601 10.085 24s-3.859 17.897-10.079 23.995c-6.227 6.236-14.826 10.090-24.325 10.090s-18.099-3.854-24.32-10.084l-477.44-477.44c-6.23-6.221-10.084-14.821-10.084-24.32s3.854-18.099 10.084-24.32l477.44-478.080c6.345-5.952 14.906-9.608 24.32-9.608s17.975 3.656 24.339 9.626c6.211 6.203 10.065 14.803 10.065 24.302s-3.854 18.099-10.084 24.32zM2037.76 472.32l-477.44 477.44c-6.221 6.23-14.821 10.084-24.32 10.084s-18.099-3.854-24.32-10.084c-6.226-6.104-10.085-14.601-10.085-24s3.859-17.897 10.079-23.995l453.765-453.765-453.76-453.76c-6.23-6.221-10.084-14.821-10.084-24.32s3.854-18.099 10.084-24.32c6.345-5.952 14.906-9.608 24.32-9.608s17.975 3.656 24.339 9.626l477.421 478.062c6.23 6.221 10.084 14.821 10.084 24.32s-3.854 18.099-10.084 24.32z" />
<glyph unicode="&#xe926;" glyph-name="vopy" horiz-adv-x="887" d="M626.688 960h-626.688v-769.365h182.955v584.363h443.733v185.003zM665.6 670.549v-162.475h182.955zM587.093 438.443v266.923h-326.315v-769.365h626.688v502.443h-300.373z" />
<glyph unicode="&#xe927;" glyph-name="edit" d="M896.731 605.989v-542.72c0-0.13 0.001-0.285 0.001-0.439 0-70.751-57.272-128.126-127.985-128.292h-641.479c-71.046 0.125-128.607 57.685-128.731 128.719v641.475c0.166 70.728 57.541 128.001 128.292 128.001 0.154 0 0.309 0 0.463-0.001h542.696l-128-128h-414.72v-641.463h641.463v414.72zM798.72 870.766l-45.349-45.349 136.046-136.777 45.349 45.349zM889.417 961.463l-45.349-45.349 136.046-136.777 45.349 46.080zM299.886 371.2l136.046-136.046 408.137 408.137-136.046 136.046zM255.269 191.269h128.731l-128.731 128.731v-128.731z" />
<glyph unicode="&#xe928;" glyph-name="filter-icon" horiz-adv-x="1418" d="M0 960l531.692-512v-512l354.462 85.307v426.693l531.692 512h-1417.846z" />
<glyph unicode="&#xe929;" glyph-name="ad" horiz-adv-x="1479" d="M762.652 568.661h-23.097v-270.734h23.097c0.085 0 0.186 0 0.287 0 35.663 0 67.609 15.914 89.123 41.029 23.388 24.749 37.684 58.021 37.684 94.632 0 0.407-0.002 0.813-0.005 1.22 0.008 0.465 0.012 1.088 0.012 1.712 0 35.948-14.328 68.549-37.586 92.404-21.864 24.424-53.526 39.74-88.766 39.74-0.264 0-0.527-0.001-0.791-0.003zM1184.427 960h-889.742c-1.023 0.013-2.232 0.021-3.442 0.021-80.545 0-153.176-33.884-204.415-88.176-53.687-53.036-86.859-126.469-86.859-207.649 0-1.527 0.012-3.050 0.035-4.572l-0.003-420.748c-0.037-1.751-0.059-3.816-0.059-5.885 0-81.62 33.138-155.501 86.694-208.921 51.358-54.302 123.902-88.095 204.338-88.095 1.305 0 2.607 0.009 3.908 0.027l889.545-0.002c1.023-0.013 2.232-0.021 3.442-0.021 80.545 0 153.176 33.884 204.415 88.176 53.724 53.569 86.884 127.472 86.884 209.12 0 2.050-0.021 4.095-0.062 6.135l0.005 420.673c0.021 1.308 0.033 2.851 0.033 4.397 0 81.153-33.15 154.563-86.646 207.429-51.38 54.324-123.924 88.117-204.361 88.117-1.305 0-2.607-0.009-3.908-0.027l0.197 0.002zM592.213 206.734h-118.443v61.781h-173.34l-40.448-61.781h-155.989l343.78 482.532h144.441v-482.532zM797.298 206.734h-176.356v482.532h156.16c1.008 0.016 2.197 0.025 3.388 0.025 64.592 0 122.857-27.088 164.055-70.524 42.988-43.187 69.506-102.607 69.506-168.221 0-1.935-0.023-3.866-0.069-5.79 0.109-2.4 0.168-5.552 0.168-8.719 0-61.822-22.463-118.398-59.673-162.010-36.388-41.304-89.83-67.444-149.378-67.444-2.723 0-5.434 0.055-8.131 0.163zM1057.28 206.734h-40.391c52.084 58.488 83.906 136.012 83.906 220.968 0 2.997-0.040 5.984-0.118 8.961 0.223 3.967 0.345 9.131 0.345 14.324 0 94.105-40.086 178.847-104.115 238.082l57.585 0.196c52.402-70.227 86.135-157.162 92.369-251.611 0.173-4.546 0.229-8.211 0.229-11.888 0-82.934-28.326-159.251-75.831-219.806l-13.922 0.774zM1178.624 206.734h-40.391c50.369 58.943 81.020 136.054 81.020 220.323 0 3.223-0.045 6.436-0.134 9.638 0.225 3.936 0.347 9.1 0.347 14.293 0 94.105-40.086 178.847-104.115 238.082l60.429 0.196c52.402-70.227 86.135-157.162 92.369-251.611 0.174-4.552 0.23-8.223 0.23-11.907 0-82.928-28.327-159.239-75.832-219.787l-13.865 0.773zM1314.418 206.734h-57.742c52.084 58.488 83.906 136.012 83.906 220.968 0 2.997-0.040 5.984-0.118 8.961 0.223 3.967 0.345 9.131 0.345 14.324 0 94.105-40.086 178.847-104.115 238.082l57.528 0.196c52.402-70.227 86.135-157.162 92.369-251.611 0.181-4.711 0.241-8.568 0.241-12.439 0-82.325-27.196-158.298-73.093-219.425zM473.771 359.708v176.356l-109.796-176.356h109.796z" />
<glyph unicode="&#xe92a;" glyph-name="adscoops" horiz-adv-x="1069" d="M1029.432 960h-990.342c-21.605-0.076-39.090-17.608-39.090-39.223 0-0.047 0-0.094 0-0.141v-676.456c0-0.040 0-0.087 0-0.134 0-21.616 17.485-39.148 39.083-39.223h990.349c21.605 0.076 39.090 17.608 39.090 39.223 0 0.047 0 0.094 0 0.141v676.456c0 0.040 0 0.087 0 0.134 0 21.616-17.485 39.148-39.083 39.223zM956.149 357.309c0-0.040 0-0.087 0-0.134 0-21.616-17.485-39.148-39.083-39.223h-765.692c-21.605 0.076-39.090 17.608-39.090 39.223 0 0.047 0 0.094 0 0.141v450.152c0 0.053 0 0.116 0 0.178 0 21.616 17.485 39.148 39.083 39.223h765.781c21.605-0.076 39.090-17.608 39.090-39.223 0-0.063 0-0.125 0-0.188v-450.15zM764.082 613.176c-5.164 2.702-11.281 4.288-17.767 4.288-15.14 0-28.263-8.637-34.711-21.253l-14.483-28.536-57.878 138.017c-6.028 14.228-19.876 24.028-36.012 24.028-14.695 0-27.492-8.128-34.141-20.133l-65.415-119.563-59.214 59.615c-7.055 7.122-16.837 11.532-27.65 11.532-13.667 0-25.689-7.046-32.63-17.704l-94.745-146.181c-3.994-6.074-6.37-13.52-6.37-21.521 0-13.711 6.98-25.792 17.58-32.884 6.165-4.101 13.565-6.49 21.523-6.49 13.662 0 25.68 7.041 32.622 17.692l68.432 105.577 61.93-62.33c7.058-7.101 16.832-11.496 27.632-11.496 14.715 0 27.524 8.158 34.152 20.199l51.569 94.276 59.080-141.089c6.024-14.238 19.877-24.047 36.020-24.047 15.127 0 28.243 8.612 34.711 21.201l52.683 103.91c2.692 5.2 4.27 11.352 4.27 17.872 0 15.127-8.495 28.269-20.975 34.917zM800.1 121.389h-78.848v17.809c0 0.027 0 0.058 0 0.089 0 14.402-11.65 26.084-26.041 26.134h-321.674c-14.395-0.051-26.045-11.732-26.045-26.134 0-0.031 0-0.063 0-0.094v-17.804h-79.071c-21.605-0.076-39.090-17.608-39.090-39.223 0-0.047 0-0.094 0-0.141v-106.845c0-0.040 0-0.087 0-0.134 0-21.616 17.485-39.148 39.083-39.223h531.686c21.605 0.076 39.090 17.608 39.090 39.223 0 0.047 0 0.094 0 0.141v106.845c0 0.040 0 0.087 0 0.134 0 21.616-17.485 39.148-39.083 39.223z" />
<glyph unicode="&#xe92b;" glyph-name="settings" d="M685.686 818.924c14.060 30.405 28.318 60.613 43.323 92.711-63.182 29.728-137.226 47.080-215.323 47.080-267.99 0-488.258-204.322-513.522-465.684 35.085-5.253 68.444-8.167 101.763-10.924 20.683 210.887 197.093 374.322 411.675 374.322 62.402 0 121.576-13.822 174.627-38.57zM1016.517 535.355c-33.162-5.632-66.087-11.54-100.47-17.408 3.792-21.003 5.96-45.176 5.96-69.857 0-214.487-163.758-390.725-373.067-410.509 1.303-33.879 4.217-66.804 6.935-99.73 249.186 8.625 515.978 258.639 460.839 597.307zM100.47 410.191c-31.508-2.718-64.591-5.671-97.516-8.389 20.639-248.029 216.517-444.395 462.483-465.669 4.855 33.62 7.77 66.821 10.487 98.841-214.764 35.879-339.18 160.256-375.454 375.217zM836.726 696.438c24.342-31.576 44.795-67.891 59.641-106.968 32.834 8.625 64.303 20.165 97.268 32.098-37.711 100.931-102.761 184.351-186.154 243.66-21.285-26.809-40.386-54.063-60.315-82.577 34.185-24.868 63.67-53.29 88.842-85.266zM560.482 154.112v40.054c36.876 7.184 69.531 21.382 97.948 41.23l27.689-29.061c4.958-4.816 11.732-7.785 19.2-7.785s14.242 2.969 19.207 7.791l29.571 29.571c4.859 4.931 7.86 11.705 7.86 19.18s-3.001 14.249-7.863 19.184l-28.944 28.944c18.873 27.58 32.726 60.163 39.407 95.287l41.371 1.599c14.925 0.045 27.013 12.132 27.057 27.053v41.949c-0.045 14.925-12.132 27.013-27.053 27.057h-41.358c-7.156 36.52-21.125 68.869-40.615 97.115l29.941 28.522c4.859 4.931 7.86 11.705 7.86 19.18s-3.001 14.249-7.863 19.184l-30.008 29.771c-4.958 4.816-11.732 7.785-19.2 7.785s-14.242-2.969-19.207-7.791l-29.374-29.335c-27.462 18.927-59.89 32.896-94.859 39.786l-1.633 41.583c-0.045 14.925-12.132 27.013-27.053 27.057h-41.949c-14.925-0.045-27.013-12.132-27.057-27.053v-41.122c-36.734-7.009-69.312-20.924-97.761-40.424l-27.876 29.12c-4.958 4.816-11.732 7.785-19.2 7.785s-14.242-2.969-19.207-7.791l-29.571-29.808c-4.859-4.931-7.86-11.705-7.86-19.18s3.001-14.249 7.863-19.184l28.511-28.511c-19.242-27.597-33.377-60.257-40.228-95.519l-40.274-1.603c-14.934-0.022-27.035-12.123-27.057-27.055v-41.947c0.045-14.925 12.132-27.013 27.053-27.057h39.862c7.102-36.985 21.166-69.772 40.857-98.387l-28.136-27.407c-4.816-4.958-7.785-11.732-7.785-19.2s2.969-14.242 7.791-19.207l29.571-29.571c4.958-4.816 11.732-7.785 19.2-7.785s14.242 2.969 19.207 7.791l28.114 28.114c27.826-19.1 60.688-33.16 96.117-40.026l1.636-40.082c0.045-14.925 12.132-27.013 27.053-27.057h41.949c14.913 0.263 26.923 12.328 27.096 27.238zM413.223 348.948c-25.271 25.279-40.901 60.197-40.901 98.765 0 77.153 62.545 139.697 139.697 139.697s139.697-62.545 139.697-139.697c0-38.569-15.63-73.487-40.901-98.766-25.286-25.28-60.215-40.915-98.796-40.915s-73.51 15.636-98.797 40.916z" />
<glyph unicode="&#xe92c;" glyph-name="video" horiz-adv-x="1365" d="M1341.781 960h-1318.229c-0.239 0.009-0.52 0.014-0.802 0.014-12.392 0-22.471-9.906-22.75-22.232v-979.539c0.279-12.352 10.358-22.258 22.75-22.258 0.282 0 0.563 0.005 0.842 0.015l1318.189-0.001c0.239-0.009 0.52-0.014 0.802-0.014 12.392 0 22.471 9.906 22.75 22.232v979.539c-0.279 12.352-10.358 22.258-22.75 22.258-0.282 0-0.563-0.005-0.842-0.015zM235.406-19.456h-188.302v200.078h188.302v-200.306zM235.406 225.166h-188.302v200.363h188.302v-200.363zM235.406 469.788h-188.302v200.363h188.302v-200.363zM235.406 714.695h-188.302v200.306h188.302v-199.623zM860.103 428.772l-258.958-155.819c-3.576-2.18-7.901-3.47-12.528-3.47-0.036 0-0.071 0-0.107 0-0.017 0-0.045 0-0.072 0-4.126 0-8.016 1.010-11.437 2.796-7.092 3.607-11.983 10.944-12.094 19.433v311.652c0.084 8.512 4.985 15.86 12.105 19.455 3.419 1.796 7.323 2.816 11.465 2.816 4.677 0 9.050-1.3 12.778-3.559l258.848-155.757c6.339-3.845 10.51-10.708 10.51-18.546s-4.171-14.701-10.414-18.492zM1318.286-19.911h-188.302v200.533h188.302v-200.306zM1318.286 224.711h-188.302v200.363h188.302v-200.363zM1318.286 469.333h-188.302v200.363h188.302v-200.363zM1318.286 714.24h-188.302v200.306h188.302v-199.168z" />
</font>
</defs>
</svg>
